<?xml version="1.0" standalone="no"?>
<!DOCTYPE svg PUBLIC "-//W3C//DTD SVG 20010904//EN"
 "http://www.w3.org/TR/2001/REC-SVG-20010904/DTD/svg10.dtd">
<svg version="1.0" xmlns="http://www.w3.org/2000/svg"
 width="1024.000000pt" height="1024.000000pt" viewBox="0 0 1024.000000 1024.000000"
 preserveAspectRatio="xMidYMid meet">

<g transform="translate(0.000000,1024.000000) scale(0.100000,-0.100000)"
fill="#000000" stroke="none">
<path d="M4805 9269 c-449 -31 -912 -157 -1316 -360 -231 -115 -505 -291 -684
-440 -104 -87 -355 -327 -355 -340 0 -4 30 -57 66 -117 l66 -109 152 152 c503
507 1132 821 1873 936 198 30 627 38 843 15 475 -52 893 -186 1293 -415 265
-152 499 -326 707 -528 l137 -133 67 117 66 117 -62 64 c-395 402 -998 757
-1558 916 -382 109 -862 155 -1295 125z"/>
<path d="M5807 8526 c-101 -100 -115 -266 -36 -392 17 -25 29 -47 27 -49 -20
-17 -53 -10 -132 30 -83 42 -93 45 -170 45 -83 0 -136 -10 -193 -37 -53 -25
-59 -71 -18 -135 64 -98 133 -134 310 -163 32 -6 36 -8 22 -16 -34 -19 -151
-21 -260 -5 -76 11 -179 16 -350 16 -271 0 -459 11 -685 40 -84 11 -175 20
-201 20 -231 0 -427 -146 -505 -378 -42 -121 -60 -268 -76 -600 -11 -222 -13
-229 -80 -307 -71 -81 -75 -94 -74 -242 0 -152 8 -172 54 -148 57 30 146 123
178 187 38 76 47 135 62 408 14 233 38 397 78 520 l27 85 6 -205 c5 -144 13
-238 28 -315 29 -154 28 -179 -16 -271 l-38 -79 -3 -351 -3 -350 24 -36 c14
-19 30 -52 37 -72 14 -44 25 -47 160 -49 138 -3 138 -2 70 144 -64 137 -68
165 -50 399 12 163 29 282 48 330 22 57 164 190 203 190 31 0 22 -18 -46 -93
-81 -89 -105 -136 -105 -208 0 -58 14 -82 61 -112 25 -15 27 -22 30 -96 3 -66
8 -84 27 -104 18 -19 30 -58 53 -168 20 -101 39 -163 62 -209 l34 -65 131 -3
c153 -3 156 0 99 84 -116 174 -135 211 -170 329 -20 65 -34 121 -32 123 13 13
53 -13 75 -47 26 -44 55 -56 94 -41 40 15 53 53 33 96 l-17 35 39 49 c21 27
42 65 45 85 4 20 13 38 20 41 8 3 40 -3 72 -12 39 -12 96 -18 169 -18 61 -1
113 -5 117 -11 4 -5 8 -75 8 -155 1 -249 14 -391 43 -452 13 -29 27 -73 30
-97 6 -50 15 -58 74 -67 56 -8 89 1 119 33 38 41 40 67 8 162 -25 74 -29 100
-27 186 0 55 8 150 17 210 14 96 19 113 42 133 26 23 27 23 45 5 15 -15 22
-56 39 -223 11 -113 20 -211 20 -217 0 -26 28 -12 53 26 14 21 50 65 81 98 30
33 60 72 66 87 5 15 10 65 10 111 l0 84 83 83 c102 101 133 156 222 388 79
209 140 337 163 344 9 3 107 6 217 7 194 3 201 2 250 -21 65 -32 200 -35 254
-6 101 54 181 169 181 258 0 51 4 46 -159 183 -69 57 -204 207 -238 263 -18
30 -27 62 -31 110 -7 98 -35 145 -122 203 l-25 17 26 28 c54 58 69 94 69 168
0 50 -6 82 -21 113 -19 39 -70 93 -88 93 -5 0 -11 -22 -14 -49 -9 -72 -44
-146 -88 -186 -44 -39 -43 -39 -137 -23 -58 10 -78 9 -124 -4 -31 -9 -67 -13
-82 -11 -56 11 -110 93 -136 203 -20 86 -22 87 -63 46z m535 -683 c20 -18 24
-63 6 -81 -31 -31 -98 -5 -98 38 0 53 53 79 92 43z"/>
<path d="M1780 8417 c-65 -34 -99 -114 -70 -166 5 -10 99 -102 210 -206 119
-111 209 -203 220 -226 23 -45 48 -111 220 -594 171 -482 142 -427 234 -448
43 -10 104 -30 137 -44 33 -14 62 -24 64 -21 3 3 -22 81 -54 174 -33 93 -114
328 -181 522 -133 390 -177 499 -234 584 -50 76 -389 405 -441 429 -51 24 -53
23 -105 -4z"/>
<path d="M1967 7463 c-223 -402 -366 -877 -408 -1352 -15 -174 -6 -645 15
-795 70 -496 231 -928 502 -1348 443 -686 1167 -1224 1954 -1453 801 -232
1677 -200 2420 90 264 103 460 207 713 378 637 431 1121 1067 1361 1791 63
188 100 354 132 586 16 115 27 507 17 608 l-5 52 -123 -117 -124 -118 -1 -115
c-1 -384 -120 -871 -297 -1224 -72 -143 -248 -414 -261 -401 -2 2 23 54 57
117 250 469 279 913 88 1347 -70 158 -162 289 -295 421 -210 208 -410 316
-704 382 -88 20 -131 23 -298 23 -168 0 -210 -3 -299 -23 -439 -99 -787 -362
-976 -741 -50 -100 -110 -286 -130 -401 -22 -123 -22 -335 -1 -465 22 -134 89
-327 153 -443 l53 -96 -40 -125 c-60 -194 -149 -506 -156 -551 -7 -42 -4 -45
41 -40 28 3 355 143 555 239 l63 30 56 -38 c121 -82 277 -148 446 -187 126
-30 443 -27 584 4 119 27 258 75 349 121 37 19 76 31 99 31 l38 -1 -111 -107
c-342 -332 -747 -578 -1217 -741 -223 -77 -448 -128 -737 -167 -170 -24 -601
-23 -785 0 -575 73 -1132 291 -1610 629 -277 196 -526 443 -733 727 l-62 85
62 58 c35 32 128 102 208 156 478 321 1148 538 1853 601 129 11 602 14 666 4
36 -6 41 -10 41 -34 0 -15 7 -71 15 -125 14 -97 13 -121 -7 -109 -5 4 -4 -4 2
-17 18 -35 23 -37 16 -9 -6 25 -6 25 6 2 6 -12 9 -24 7 -27 -5 -4 -200 -35
-254 -40 -16 -2 -37 -5 -45 -8 -8 -3 -80 -19 -160 -37 -124 -27 -391 -103
-455 -129 -11 -5 -65 -26 -120 -46 -144 -55 -555 -263 -555 -281 0 -3 33 14
73 36 412 232 800 370 1267 450 96 16 191 30 210 30 56 0 60 7 44 80 -28 129
-39 322 -26 448 7 64 15 133 18 153 6 35 6 36 -37 47 -142 37 -370 61 -649 69
-672 19 -1298 -113 -1865 -392 -212 -104 -356 -192 -487 -296 -49 -38 -93 -67
-97 -65 -14 9 -79 194 -116 331 -40 145 -66 269 -90 425 -22 140 -32 584 -16
742 38 392 135 737 305 1090 l45 93 -54 149 c-30 82 -57 151 -59 153 -2 2 -33
-49 -69 -114z m4933 -1713 c59 -38 164 -147 217 -225 91 -135 160 -314 184
-474 15 -108 6 -289 -21 -399 -49 -203 -169 -413 -312 -548 -105 -99 -176
-111 -208 -35 -19 46 -6 75 61 133 220 191 342 506 310 799 -24 218 -111 396
-273 562 -88 89 -98 103 -98 136 0 45 30 81 67 81 14 0 47 -13 73 -30z m-299
-331 c79 -62 153 -176 193 -292 62 -183 34 -413 -73 -595 -49 -84 -146 -188
-184 -197 -44 -11 -77 2 -91 37 -19 45 -6 80 58 149 155 167 191 432 86 639
-16 31 -56 86 -89 123 -64 70 -77 111 -48 148 35 45 81 41 148 -12z m-358
-271 c146 -104 156 -356 18 -481 -51 -46 -83 -55 -117 -33 -54 36 -56 86 -4
151 35 43 54 105 45 144 -3 15 -24 54 -46 86 -47 69 -47 104 -3 143 30 27 59
24 107 -10z"/>
<path d="M2297 6630 c-103 -27 -187 -97 -208 -175 -52 -190 150 -408 602 -652
77 -42 136 -79 132 -83 -4 -4 -35 -13 -68 -20 -68 -14 -122 -39 -147 -67 -26
-28 -48 -88 -48 -128 l0 -35 646 0 c593 0 645 1 642 16 -2 9 -12 22 -23 28
-11 6 -60 41 -110 77 -222 161 -338 304 -483 595 -52 103 -70 130 -125 180
-107 98 -309 201 -479 244 -93 24 -272 35 -331 20z"/>
<path d="M5091 4854 c0 -11 3 -14 6 -6 3 7 2 16 -1 19 -3 4 -6 -2 -5 -13z"/>
<path d="M3529 4009 l-24 -20 28 17 c15 9 27 18 27 20 0 8 -8 4 -31 -17z"/>
<path d="M3460 3969 c-19 -10 -53 -35 -75 -54 -35 -31 -31 -29 30 11 98 66
114 82 45 43z"/>
<path d="M3255 3818 c-147 -112 -395 -340 -395 -362 0 -6 24 14 53 44 93 97
201 195 303 275 104 82 131 105 124 105 -3 0 -41 -28 -85 -62z"/>
<path d="M5012 2189 c-54 -10 -145 -52 -190 -85 -74 -57 -132 -186 -132 -296
l0 -48 134 0 134 0 7 49 c13 94 73 155 173 172 152 27 272 -52 272 -178 0 -71
-26 -113 -90 -145 -47 -24 -65 -28 -142 -28 l-88 0 0 -115 0 -115 103 0 c87 0
110 -4 147 -22 102 -52 123 -198 38 -274 -51 -47 -88 -58 -193 -58 -110 -1
-153 14 -207 71 -30 31 -58 91 -58 123 0 19 -6 20 -136 20 l-137 0 7 -72 c11
-103 40 -173 100 -237 101 -107 275 -159 490 -148 232 13 376 88 448 235 31
62 33 74 33 167 0 84 -4 108 -24 152 -28 64 -91 124 -154 148 l-46 17 52 35
c102 68 143 156 135 292 -13 232 -188 353 -507 350 -69 -1 -145 -5 -169 -10z"/>
<path d="M3320 1510 l0 -680 403 0 c375 0 408 1 477 21 126 34 202 96 252 205
19 41 23 66 23 154 0 94 -3 110 -27 155 -34 64 -80 108 -146 138 l-53 25 43
25 c98 58 142 138 142 262 1 116 -22 174 -98 251 -64 65 -124 95 -230 115 -27
5 -215 9 -417 9 l-369 0 0 -680z m747 409 c52 -25 73 -61 73 -126 0 -58 -26
-105 -72 -130 -28 -15 -64 -18 -240 -21 l-208 -3 0 150 0 151 202 0 c185 0
205 -2 245 -21z m19 -538 c117 -53 125 -224 12 -282 -40 -21 -58 -23 -260 -27
l-218 -4 0 166 0 166 213 0 c185 0 217 -3 253 -19z"/>
<path d="M5940 1510 l0 -680 150 0 150 0 0 275 0 275 280 0 280 0 0 120 0 120
-280 0 -280 0 0 155 0 155 335 0 335 0 0 130 0 130 -485 0 -485 0 0 -680z"/>
</g>
</svg>
